TITLE ""
FILE "P1Q_t_1430-1438.mp3" MP3
  TRACK 01 AUDIO
    TITLE "P1Q_t_1430-1438_01"
    INDEX 01 00:00:00
  TRACK 02 AUDIO
    TITLE "P1Q_t_1430-1438_02"
    INDEX 01 00:01:10
  TRACK 03 AUDIO
    TITLE "P1Q_t_1430-1438_03"
    INDEX 01 00:01:31
  TRACK 04 AUDIO
    TITLE "P1Q_t_1430-1438_04"
    INDEX 01 00:06:32
  TRACK 05 AUDIO
    TITLE "P1Q_t_1430-1438_05"
    INDEX 01 00:06:52
  TRACK 06 AUDIO
    TITLE "P1Q_t_1430-1438_06"
    INDEX 01 00:10:42
  TRACK 07 AUDIO
    TITLE "P1Q_t_1430-1438_07"
    INDEX 01 00:11:14
  TRACK 08 AUDIO
    TITLE "P1Q_t_1430-1438_08"
    INDEX 01 00:12:29
  TRACK 09 AUDIO
    TITLE "P1Q_t_1430-1438_09"
    INDEX 01 00:12:51
  TRACK 10 AUDIO
    TITLE "P1Q_t_1430-1438_10"
    INDEX 01 00:15:71
  TRACK 11 AUDIO
    TITLE "P1Q_t_1430-1438_11"
    INDEX 01 00:16:13
  TRACK 12 AUDIO
    TITLE "P1Q_t_1430-1438_12"
    INDEX 01 00:19:47
  TRACK 13 AUDIO
    TITLE "P1Q_t_1430-1438_13"
    INDEX 01 00:20:17
  TRACK 14 AUDIO
    TITLE "P1Q_t_1430-1438_14"
    INDEX 01 00:21:36
  TRACK 15 AUDIO
    TITLE "P1Q_t_1430-1438_15"
    INDEX 01 00:21:58
  TRACK 16 AUDIO
    TITLE "P1Q_t_1430-1438_16"
    INDEX 01 00:24:25
  TRACK 17 AUDIO
    TITLE "P1Q_t_1430-1438_17"
    INDEX 01 00:24:42
  TRACK 18 AUDIO
    TITLE "P1Q_t_1430-1438_18"
    INDEX 01 00:29:06
  TRACK 19 AUDIO
    TITLE "P1Q_t_1430-1438_19"
    INDEX 01 00:29:53
  TRACK 20 AUDIO
    TITLE "P1Q_t_1430-1438_20"
    INDEX 01 00:30:68
  TRACK 21 AUDIO
    TITLE "P1Q_t_1430-1438_21"
    INDEX 01 00:31:17
  TRACK 22 AUDIO
    TITLE "P1Q_t_1430-1438_22"
    INDEX 01 00:39:53
  TRACK 23 AUDIO
    TITLE "P1Q_t_1430-1438_23"
    INDEX 01 00:39:75
  TRACK 24 AUDIO
    TITLE "P1Q_t_1430-1438_24"
    INDEX 01 00:44:74
  TRACK 25 AUDIO
    TITLE "P1Q_t_1430-1438_25"
    INDEX 01 00:45:44
  TRACK 26 AUDIO
    TITLE "P1Q_t_1430-1438_26"
    INDEX 01 00:46:54
  TRACK 27 AUDIO
    TITLE "P1Q_t_1430-1438_27"
    INDEX 01 00:47:24
  TRACK 28 AUDIO
    TITLE "P1Q_t_1430-1438_28"
    INDEX 01 00:48:29
  TRACK 29 AUDIO
    TITLE "P1Q_t_1430-1438_29"
    INDEX 01 00:48:49
  TRACK 30 AUDIO
    TITLE "P1Q_t_1430-1438_30"
    INDEX 01 00:52:13
  TRACK 31 AUDIO
    TITLE "P1Q_t_1430-1438_31"
    INDEX 01 00:52:33
  TRACK 32 AUDIO
    TITLE "P1Q_t_1430-1438_32"
    INDEX 01 00:56:62
  TRACK 33 AUDIO
    TITLE "P1Q_t_1430-1438_33"
    INDEX 01 00:57:30
  TRACK 34 AUDIO
    TITLE "P1Q_t_1430-1438_34"
    INDEX 01 00:58:55
  TRACK 35 AUDIO
    TITLE "P1Q_t_1430-1438_35"
    INDEX 01 00:59:01
  TRACK 36 AUDIO
    TITLE "P1Q_t_1430-1438_36"
    INDEX 01 01:01:28
  TRACK 37 AUDIO
    TITLE "P1Q_t_1430-1438_37"
    INDEX 01 01:01:43
  TRACK 38 AUDIO
    TITLE "P1Q_t_1430-1438_38"
    INDEX 01 01:05:53
  TRACK 39 AUDIO
    TITLE "P1Q_t_1430-1438_39"
    INDEX 01 01:06:19
  TRACK 40 AUDIO
    TITLE "P1Q_t_1430-1438_40"
    INDEX 01 01:07:44
  TRACK 41 AUDIO
    TITLE "P1Q_t_1430-1438_41"
    INDEX 01 01:07:64
  TRACK 42 AUDIO
    TITLE "P1Q_t_1430-1438_42"
    INDEX 01 01:09:04
  TRACK 43 AUDIO
    TITLE "P1Q_t_1430-1438_43"
    INDEX 01 01:09:23
  TRACK 44 AUDIO
    TITLE "P1Q_t_1430-1438_44"
    INDEX 01 01:15:47
  TRACK 45 AUDIO
    TITLE "P1Q_t_1430-1438_45"
    INDEX 01 01:16:15
  TRACK 46 AUDIO
    TITLE "P1Q_t_1430-1438_46"
    INDEX 01 01:17:09
  TRACK 47 AUDIO
    TITLE "P1Q_t_1430-1438_47"
    INDEX 01 01:17:36
  TRACK 48 AUDIO
    TITLE "P1Q_t_1430-1438_48"
    INDEX 01 01:20:41
  TRACK 49 AUDIO
    TITLE "P1Q_t_1430-1438_49"
    INDEX 01 01:20:60
  TRACK 50 AUDIO
    TITLE "P1Q_t_1430-1438_50"
    INDEX 01 01:25:28
  TRACK 51 AUDIO
    TITLE "P1Q_t_1430-1438_51"
    INDEX 01 01:25:73
  TRACK 52 AUDIO
    TITLE "P1Q_t_1430-1438_52"
    INDEX 01 01:27:17
  TRACK 53 AUDIO
    TITLE "P1Q_t_1430-1438_53"
    INDEX 01 01:27:37
  TRACK 54 AUDIO
    TITLE "P1Q_t_1430-1438_54"
    INDEX 01 01:30:57
  TRACK 55 AUDIO
    TITLE "P1Q_t_1430-1438_55"
    INDEX 01 01:31:03
  TRACK 56 AUDIO
    TITLE "P1Q_t_1430-1438_56"
    INDEX 01 01:35:68
